<svg version="1.1" id="Layer_1" xmlns="http://www.w3.org/2000/svg" xmlns:xlink="http://www.w3.org/1999/xlink" x="0px" y="0px"
	 width="100%" viewBox="0 0 119 133" enable-background="new 0 0 119 133" xml:space="preserve">
<path fill="#FDFEFF" opacity="1.000000" stroke="none" 
	d="
M1.000000,55.000000 
	C1.000000,36.666668 1.000000,18.833334 1.000000,1.000000 
	C40.666668,1.000000 80.333336,1.000000 120.000000,1.000000 
	C120.000000,45.333332 120.000000,89.666664 120.000000,134.000000 
	C80.333336,134.000000 40.666668,134.000000 1.000000,134.000000 
	C1.000000,107.833336 1.000000,81.666664 1.000000,55.000000 
M27.962215,111.555702 
	C29.914621,118.694305 31.867027,125.832909 34.079117,133.921005 
	C51.355812,128.466400 68.367516,124.241432 84.447388,117.719162 
	C103.169861,110.125015 115.526169,95.976547 117.845604,75.112495 
	C119.619377,59.156906 116.184441,43.908222 108.473793,29.842243 
	C97.909233,10.570073 80.826553,0.618851 59.475498,2.705007 
	C40.171444,4.591155 21.254198,10.436140 1.758643,14.622994 
	C10.684968,47.589939 19.236567,79.172935 27.962215,111.555702 
z"/>
<path fill="#3AB7FF" opacity="1.000000" stroke="none" 
	d="
M27.875191,111.155815 
	C19.236567,79.172935 10.684968,47.589939 1.758643,14.622994 
	C21.254198,10.436140 40.171444,4.591155 59.475498,2.705007 
	C80.826553,0.618851 97.909233,10.570073 108.473793,29.842243 
	C116.184441,43.908222 119.619377,59.156906 117.845604,75.112495 
	C115.526169,95.976547 103.169861,110.125015 84.447388,117.719162 
	C68.367516,124.241432 51.355812,128.466400 34.079117,133.921005 
	C31.867027,125.832909 29.914621,118.694305 27.875191,111.155815 
M33.043457,29.786873 
	C36.957317,44.714626 40.844151,59.649540 44.794281,74.567688 
	C47.548248,84.968376 50.388988,95.346092 53.384663,106.452164 
	C61.101246,103.657333 68.488548,101.561417 75.354759,98.351013 
	C84.327148,94.155838 90.024254,86.811539 91.204720,76.796196 
	C93.076080,60.919270 89.122795,46.407051 79.305420,33.775009 
	C73.987404,26.932306 66.464912,23.261854 57.861225,24.181511 
	C49.675072,25.056538 41.649372,27.432638 33.043457,29.786873 
z"/>
<path fill="#FDFEFF" opacity="1.000000" stroke="none" 
	d="
M33.298290,29.467815 
	C41.649372,27.432638 49.675072,25.056538 57.861225,24.181511 
	C66.464912,23.261854 73.987404,26.932306 79.305420,33.775009 
	C89.122795,46.407051 93.076080,60.919270 91.204720,76.796196 
	C90.024254,86.811539 84.327148,94.155838 75.354759,98.351013 
	C68.488548,101.561417 61.101246,103.657333 53.384663,106.452164 
	C50.388988,95.346092 47.548248,84.968376 44.794281,74.567688 
	C40.844151,59.649540 36.957317,44.714626 33.298290,29.467815 
z"/>
</svg>